<?xml version="1.0" encoding="UTF-8"?>
<svg id="_レイヤー_2" data-name="レイヤー 2" xmlns="http://www.w3.org/2000/svg" viewBox="0 0 150.73 148.27">
  <defs>
    <style>
      .cls-1 {
        fill: #3e3a39;
      }
    </style>
  </defs>
  <g id="pc_loading">
    <g>
      <path class="cls-1" d="m140.98,90.29c-6.7-6.2-16.25-9.32-26.23-8.57-17.12,1.31-36.09,24.07-41.03,30.35-.66.85-1.07,1.4-1.18,1.55l-.7.95.7.95c.12.15.55.74,1.28,1.67,5.06,6.44,23.91,28.94,40.93,30.24.99.07,1.98.11,2.95.11,8.89,0,17.24-3.08,23.27-8.66,6.39-5.92,9.76-14.33,9.76-24.3s-3.37-18.37-9.75-24.29Zm-2.18,46.24c-5.37,4.97-13.14,7.81-21.18,7.81-.87,0-1.74-.04-2.63-.11-16.14-1.22-35.23-24.63-39.17-29.66,3.93-5.04,23.01-28.44,39.17-29.66,9.1-.69,17.77,2.13,23.82,7.72,5.71,5.3,8.73,12.89,8.73,21.95s-3.02,16.65-8.74,21.96Z"/>
      <path class="cls-1" d="m25.33,148.27c-6.55,0-13.63-1.87-18.8-7.08C-.5,134.08-.39,124.43.31,117.8c1.36-12.91,17.01-26.78,26.36-35.06l.78-.69c4.41-3.91,7.64-6.31,7.77-6.41l1.03-.76.97.84c.1.09,9.99,8.73,19.56,18.3,9.55,9.55,18.15,19.41,18.24,19.51l.84.97-.76,1.03c-.1.13-2.49,3.35-6.4,7.75-8.82,9.94-23.24,21.26-35.57,24.11-2.38.55-5.04.88-7.79.88Zm10.77-69.29c-1.28,1-3.67,2.91-6.53,5.45l-.78.69c-9,7.98-24.07,21.32-25.3,33.01-1,9.52.69,16.13,5.32,20.81,6.42,6.48,16.41,7.01,23.61,5.34,11.58-2.68,25.69-13.86,33.9-23.12,2.54-2.86,4.44-5.23,5.44-6.51-2.4-2.71-9.51-10.65-17.23-18.37-7.75-7.75-15.71-14.88-18.42-17.29Z"/>
      <path class="cls-1" d="m36.16,78.89l-.95-.7c-1.24-.92-30.41-22.75-31.9-42.21-.76-9.98,2.37-19.54,8.57-26.23C17.79,3.37,26.19,0,36.16,0s18.38,3.38,24.29,9.77c6.2,6.69,9.32,16.25,8.55,26.21h0c-1.47,19.45-30.66,41.29-31.9,42.21l-.95.7Zm0-75.7c-9.06,0-16.65,3.02-21.94,8.74-5.6,6.04-8.42,14.72-7.73,23.82,1.23,16.14,24.63,35.22,29.67,39.16,5.04-3.93,28.45-23.02,29.67-39.16h0c.69-8.95-2.2-17.85-7.71-23.81-5.3-5.72-12.89-8.74-21.95-8.74Z"/>
    </g>
  </g>
</svg>